# xmcd
#
# Track frame offsets: 
#        150
#        18739
#        36820
#        64069
#        89713
#        112422
#        130284
#        165232
#        185746
#        206820
#        233765
#        249889
#        272762
#        294667
#        313641
#        332810
#
# Disc length: 4698 seconds
#
# Revision: 2
# Processed by: cddbd v1.5.2PL0 Copyright (c) Steve Scherf et al.
# Submitted via: ExactAudioCopy v0.99pb1
#
DISCID=f4125810
DTITLE=Robert Plant - Legendary Masters
DYEAR=1900
DGENRE=
TTITLE0=Heaven knows
TTITLE1=Moonlight in Samosa
TTITLE2=Sixes amd sevens
TTITLE3=The way i feel
TTITLE4=Ship of fools
TTITLE5=Burning down one side
TTITLE6=Slow dancer
TTITLE7=I believe
TTITLE8=Tall cool one
TTITLE9=Like i've never been gone
TTITLE10=Billy's revenge
TTITLE11=Big log
TTITLE12=29 palms
TTITLE13=Hurting king
TTITLE14=Why
TTITLE15=Horisontal departure
EXTD=
EXTT0=
EXTT1=
EXTT2=
EXTT3=
EXTT4=
EXTT5=
EXTT6=
EXTT7=
EXTT8=
EXTT9=
EXTT10=
EXTT11=
EXTT12=
EXTT13=
EXTT14=
EXTT15=
PLAYORDER=
